<svg width="30" height="36" viewBox="0 0 30 36" fill="none" xmlns="http://www.w3.org/2000/svg">
<path d="M23.809 6.35028C23.8106 6.90136 23.7063 7.44729 23.5025 7.95656C23.2985 8.46584 22.999 8.92837 22.6211 9.31748L15.4758 16.6924L8.33567 9.31748C7.95672 8.92898 7.65626 8.46665 7.45172 7.95729C7.24718 7.44794 7.14262 6.90169 7.14412 6.35028H23.809Z" fill="white"/>
<path d="M25.8851 34.5131V36H5.01759V31.2329C5.01571 30.3953 5.1747 29.5656 5.48538 28.7919C5.79606 28.0181 6.25225 27.3157 6.82755 26.7252L6.94671 26.6021L13.8747 19.4471L14.8554 20.4602L7.92179 27.6157L7.80819 27.7387C7.36156 28.1963 7.00733 28.7408 6.76604 29.3409C6.52475 29.9409 6.40121 30.5844 6.40257 31.2341V34.502L25.8851 34.5131Z" fill="white"/>
<path d="M23.9616 26.603L16.4362 18.8323L23.9616 11.0616L24.0807 10.9435C25.253 9.76176 25.9227 8.14744 25.9424 6.45577C25.9622 4.76411 25.3304 3.13362 24.186 1.92301C23.0417 0.712411 21.4785 0.0208481 19.8404 0.000463672C18.2023 -0.0199207 16.6234 0.632537 15.4512 1.81431C14.2761 0.64913 12.7028 0.0106898 11.074 0.0380911C9.4452 0.0654923 7.89287 0.756527 6.7552 1.96061C5.61754 3.16471 4.98673 4.78429 5.00021 6.46654C5.01369 8.14878 5.67036 9.75735 6.82716 10.9418L6.94116 11.06L23.0945 27.733C23.541 28.1914 23.895 28.7366 24.1363 29.3371C24.3775 29.9377 24.5012 30.5816 24.5001 31.2318V33.6432H25.8851V31.2318C25.8876 30.3935 25.7289 29.5629 25.4182 28.7884C25.1075 28.0139 24.651 27.3108 24.0751 26.7199L23.9616 26.603ZM8.45601 10.5953L7.9218 10.0517L7.80821 9.92583C7.36132 9.46728 7.0065 8.92208 6.76407 8.32157C6.52165 7.72106 6.39639 7.07703 6.39549 6.42643C6.39459 5.77582 6.51807 5.13144 6.75882 4.53021C6.99958 3.92899 7.35291 3.38274 7.79851 2.92283C8.24412 2.46291 8.77326 2.09837 9.35559 1.85009C9.93791 1.6018 10.562 1.47468 11.192 1.47599C11.822 1.47731 12.4455 1.60704 13.0269 1.85774C13.6082 2.10846 14.1359 2.47519 14.5798 2.93695L15.4515 3.83688L16.3233 2.93695C16.7681 2.47781 17.2961 2.11364 17.8771 1.86521C18.4581 1.61678 19.0808 1.48894 19.7097 1.48903C20.3385 1.48913 20.9611 1.61715 21.5421 1.86576C22.123 2.11437 22.6509 2.4787 23.0955 2.93798C23.5401 3.39725 23.8928 3.94247 24.1334 4.54248C24.3739 5.1425 24.4977 5.78558 24.4976 6.43499C24.4975 7.08441 24.3736 7.72745 24.1328 8.3274C23.8921 8.92735 23.5393 9.4725 23.0945 9.93159L22.4507 10.6015L15.4512 17.8233L8.45601 10.5953Z" fill="white"/>
<path d="M23.6234 33.7925L15.4596 33.7961L7.28966 33.7925C7.28966 33.7925 7.27696 33.7514 7.34368 33.6648C7.47435 33.4967 7.89577 33.1616 9.26684 32.6562C9.27478 32.6562 9.27955 32.6517 9.28392 32.6517L14.2419 30.84C14.2459 30.8355 14.2543 30.8355 14.2634 30.8314C15.0708 30.4791 15.2599 30.0139 15.296 29.7494V22.6514H15.6158V29.7494C15.6495 30.0144 15.8386 30.4795 16.6485 30.8314C16.6568 30.8355 16.6647 30.8355 16.6695 30.84L21.6279 32.6517C21.6318 32.6517 21.6402 32.6562 21.6442 32.6562C23.016 33.1612 23.4415 33.4967 23.5674 33.6648C23.6369 33.7534 23.6234 33.7925 23.6234 33.7925Z" fill="white"/>
</svg>
