<svg width="202" height="48" viewBox="0 0 202 48" fill="none" xmlns="http://www.w3.org/2000/svg">
<g clip-path="url(#clip0_2019_12202)">
<path d="M47.0818 15.1796H50.3154V30.9301H58.0435V33.9523H47.0813L47.0818 15.1796Z" fill="white"/>
<path d="M63.1499 14.4008C63.5112 14.4209 63.859 14.5497 64.1501 14.7717C64.4412 14.9936 64.663 15.2988 64.7879 15.6495C64.9128 16.0002 64.9355 16.3811 64.8531 16.7449C64.7706 17.1087 64.5868 17.4397 64.3241 17.6967C64.0615 17.9538 63.7317 18.1257 63.3754 18.1913C63.0192 18.2568 62.6521 18.2131 62.3197 18.0655C61.9873 17.9179 61.7041 17.6729 61.5051 17.3607C61.3061 17.0486 61.2 16.6832 61.2 16.3095C61.206 16.0518 61.2613 15.7977 61.3627 15.5622C61.4641 15.3266 61.6096 15.114 61.7908 14.9366C61.972 14.7593 62.1853 14.6205 62.4185 14.5286C62.6518 14.4367 62.9004 14.3933 63.1499 14.4008ZM61.6353 20.6316H64.717V33.3578H61.6353V20.6316Z" fill="white"/>
<path d="M64.7754 21.2244H68.1392L71.4258 30.1333H71.4787L74.7918 21.2244H77.948L73.0956 33.9512H69.8095L64.7754 21.2244Z" fill="white"/>
<path d="M81.6323 28.7023C81.6996 29.5501 82.0819 30.3382 82.699 30.9017C83.316 31.4651 84.1201 31.7604 84.9432 31.7256C85.5881 31.731 86.2248 31.5774 86.8007 31.2775C87.3766 30.9778 87.8748 30.5404 88.254 30.0018L90.463 31.7256C89.8464 32.5402 89.0541 33.1945 88.1489 33.6362C87.2437 34.0781 86.2511 34.2949 85.2503 34.2697C81.5274 34.2697 78.5496 31.59 78.5496 27.5878C78.5496 23.5856 81.5274 20.908 85.2503 20.908C88.6925 20.908 91.027 23.3996 91.027 27.8285V28.7034L81.6323 28.7023ZM87.9474 26.3162C87.9215 24.4601 86.74 23.2931 84.814 23.2931C82.9912 23.2931 81.8626 24.487 81.6317 26.3162H87.9474Z" fill="white"/>
<path d="M105.509 18.2012H99.9374V15.1796H114.314V18.2012H108.743V33.9517H105.509V18.2012Z" fill="white"/>
<path d="M117.873 14.9945C118.235 15.0143 118.584 15.1431 118.876 15.3654C119.167 15.5876 119.39 15.8934 119.515 16.2447C119.64 16.5961 119.663 16.9777 119.58 17.3421C119.497 17.7067 119.313 18.0381 119.05 18.2957C118.787 18.5531 118.456 18.7251 118.099 18.7905C117.742 18.8559 117.375 18.8119 117.042 18.6637C116.709 18.5155 116.425 18.2696 116.226 17.9568C116.027 17.6438 115.921 17.2775 115.922 16.9031C115.928 16.6452 115.983 16.3911 116.085 16.1555C116.186 15.9198 116.332 15.7071 116.513 15.5298C116.695 15.3524 116.908 15.2137 117.142 15.1219C117.375 15.03 117.624 14.9867 117.873 14.9945ZM116.359 21.2252H119.44V33.9515H116.359V21.2252Z" fill="white"/>
<path d="M122.725 21.2245H125.653V23.213H125.702C126.037 22.4837 126.576 21.8744 127.249 21.4634C127.921 21.0524 128.698 20.8586 129.478 20.9067C131.376 20.9067 132.686 21.6723 133.328 23.2665C133.712 22.5117 134.3 21.8876 135.019 21.4689C135.739 21.0504 136.56 20.8551 137.384 20.9067C140.671 20.9067 141.827 23.3185 141.827 26.3685V33.9523H138.745V26.741C138.745 25.1501 138.283 23.7719 136.459 23.7719C134.536 23.7719 133.817 25.4126 133.817 27.0603V33.9512H130.735V26.3696C130.735 24.8045 130.117 23.7708 128.629 23.7708C126.6 23.7708 125.806 25.3081 125.806 27.0056V33.9512H122.725V21.2245Z" fill="white"/>
<path d="M147.488 28.7023C147.557 29.5502 147.938 30.3384 148.556 30.9018C149.173 31.4652 149.977 31.7604 150.8 31.7256C151.446 31.731 152.083 31.5774 152.659 31.2776C153.235 30.9779 153.734 30.5405 154.114 30.0018L156.32 31.7256C155.704 32.5402 154.912 33.1945 154.007 33.6362C153.102 34.078 152.11 34.2949 151.109 34.2697C147.386 34.2697 144.408 31.59 144.408 27.5878C144.408 23.5856 147.386 20.908 151.109 20.908C154.55 20.908 156.886 23.3996 156.886 27.8285V28.7034L147.488 28.7023ZM153.805 26.3162C153.78 24.4601 152.599 23.2931 150.673 23.2931C148.849 23.2931 147.72 24.487 147.488 26.3162H153.805Z" fill="white"/>
<path d="M159.647 13.9067H162.73V33.9513H159.647V13.9067Z" fill="white"/>
<path d="M168.504 28.7023C168.571 29.5502 168.954 30.3384 169.571 30.9018C170.188 31.4653 170.993 31.7605 171.816 31.7256C172.46 31.7311 173.098 31.5776 173.674 31.2779C174.25 30.978 174.749 30.5406 175.128 30.0018L177.335 31.7256C176.719 32.54 175.927 33.1943 175.022 33.636C174.118 34.0778 173.125 34.2948 172.124 34.2697C168.401 34.2697 165.422 31.59 165.422 27.5878C165.422 23.5856 168.401 20.908 172.124 20.908C175.566 20.908 177.901 23.3996 177.901 27.8285V28.7034L168.504 28.7023ZM174.818 26.3162C174.794 24.4601 173.614 23.2931 171.688 23.2931C169.865 23.2931 168.736 24.487 168.504 26.3162H174.818Z" fill="white"/>
<path d="M187.189 24.7505C186.928 24.3398 186.569 24.0049 186.146 23.7776C185.724 23.5504 185.252 23.438 184.777 23.4516C183.954 23.4516 182.98 23.8492 182.98 24.8041C182.98 27.0835 189.629 25.2284 189.629 30.1861C189.629 33.2082 186.83 34.2692 184.313 34.2692C182.414 34.2692 180.772 33.7655 179.513 32.3075L181.568 30.3196C182.362 31.2214 183.185 31.8836 184.494 31.8836C185.394 31.8836 186.55 31.4335 186.55 30.4256C186.55 27.8005 179.899 29.8694 179.899 25.0174C179.899 22.1796 182.364 20.908 184.853 20.908C186.494 20.908 188.243 21.438 189.244 22.8424L187.189 24.7505Z" fill="white"/>
<path d="M198.638 24.7505C198.376 24.3397 198.017 24.0048 197.594 23.7775C197.172 23.5502 196.7 23.438 196.224 23.4516C195.404 23.4516 194.424 23.8492 194.424 24.8041C194.424 27.0835 201.074 25.2284 201.074 30.1861C201.074 33.2082 198.277 34.2692 195.761 34.2692C193.861 34.2692 192.218 33.7655 190.961 32.3075L193.014 30.3196C193.808 31.2214 194.632 31.8836 195.94 31.8836C196.841 31.8836 197.995 31.4335 197.995 30.4256C197.995 27.8005 191.345 29.8694 191.345 25.0174C191.345 22.1796 193.808 20.908 196.3 20.908C197.941 20.908 199.688 21.438 200.69 22.8424L198.638 24.7505Z" fill="white"/>
<path d="M25.0787 8.46707C25.0808 9.20184 24.9418 9.92975 24.67 10.6088C24.3981 11.2878 23.9987 11.9045 23.4948 12.4233L13.9678 22.2565L4.44757 12.4233C3.94231 11.9053 3.54171 11.2889 3.26898 10.6098C2.99626 9.93062 2.85684 9.20229 2.85885 8.46707H25.0787Z" fill="white"/>
<path d="M27.8468 46.0175V48H0.0234597V41.644C0.0209424 40.5271 0.232936 39.4208 0.647173 38.3892C1.06141 37.3574 1.66967 36.421 2.43673 35.6336L2.59561 35.4695L11.833 25.9295L13.1405 27.2803L3.89572 36.8209L3.74425 36.985C3.14875 37.595 2.67644 38.3212 2.35472 39.1212C2.033 39.9212 1.86828 40.7792 1.87009 41.6455V46.0027L27.8468 46.0175Z" fill="white"/>
<path d="M25.2821 35.4707L15.2483 25.1098L25.2821 14.7488L25.441 14.5913C27.004 13.0157 27.8969 10.8633 27.9232 8.6077C27.9496 6.35214 27.1072 4.17816 25.5814 2.56402C24.0556 0.949882 21.9713 0.0277974 19.7872 0.00061823C17.603 -0.0265609 15.4979 0.843383 13.9349 2.41908C12.3682 0.865507 10.2704 0.0142531 8.09868 0.0507881C5.92693 0.087323 3.85716 1.0087 2.34026 2.61415C0.823383 4.21961 -0.0176903 6.37906 0.000282218 8.62205C0.0182548 10.865 0.893816 13.0098 2.43622 14.5891L2.58821 14.7467L24.126 36.9773C24.7213 37.5886 25.1934 38.3155 25.5151 39.1162C25.8367 39.9169 26.0016 40.7755 26.0002 41.6424V44.8576H27.8468V41.6424C27.8502 40.5246 27.6385 39.4172 27.2243 38.3845C26.81 37.3518 26.2014 36.4144 25.4335 35.6266L25.2821 35.4707ZM4.60801 14.127L3.89573 13.4023L3.74428 13.2344C3.14843 12.623 2.67533 11.8961 2.3521 11.0954C2.02886 10.2947 1.86186 9.43604 1.86066 8.56858C1.85946 7.7011 2.02409 6.84192 2.3451 6.04028C2.66611 5.23866 3.13721 4.51032 3.73135 3.89711C4.3255 3.28388 5.03101 2.79782 5.80745 2.46678C6.58388 2.13574 7.41595 1.96624 8.25596 1.96799C9.09596 1.96974 9.92737 2.14272 10.7025 2.47699C11.4776 2.81128 12.1812 3.30025 12.773 3.91594L13.9354 5.11584L15.0978 3.91594C15.6908 3.30374 16.3948 2.81819 17.1695 2.48694C17.9441 2.1557 18.7744 1.98526 19.6129 1.98538C20.4514 1.98551 21.2815 2.1562 22.0561 2.48768C22.8307 2.81916 23.5345 3.30493 24.1273 3.9173C24.7201 4.52966 25.1904 5.25662 25.5112 6.05664C25.8319 6.85667 25.9969 7.7141 25.9968 8.57999C25.9967 9.44588 25.8314 10.3033 25.5104 11.1032C25.1894 11.9031 24.719 12.63 24.126 13.2421L23.2676 14.1353L13.9349 23.7644L4.60801 14.127Z" fill="white"/>
<path d="M24.8311 45.0566L13.9462 45.0614L3.05286 45.0566C3.05286 45.0566 3.03592 45.0019 3.12489 44.8865C3.29912 44.6623 3.861 44.2154 5.6891 43.5416C5.69968 43.5416 5.70604 43.5356 5.71187 43.5356L12.3226 41.12C12.3279 41.114 12.339 41.114 12.3511 41.1085C13.4278 40.6388 13.6799 40.0186 13.728 39.6659V30.2018H14.1544V39.6659C14.1994 40.0192 14.4515 40.6393 15.5313 41.1085C15.5424 41.114 15.553 41.114 15.5593 41.12L22.1705 43.5356C22.1758 43.5356 22.1869 43.5416 22.1922 43.5416C24.0214 44.215 24.5886 44.6623 24.7565 44.8865C24.8491 45.0046 24.8311 45.0566 24.8311 45.0566Z" fill="white"/>
</g>
<defs>
<clipPath id="clip0_2019_12202">
<rect width="201.6" height="48" fill="white"/>
</clipPath>
</defs>
</svg>
